# xmcd
#
# Track frame offsets:
#	150
#	10871
#	23839
#	35310
#	46173
#	60810
#	72370
#	88032
#	102639
#	114243
#	127171
#	137773
#	153697
#	170523
#	183311
#	196282
#	208768
#	222656
#	234995
#
# Disc length: 3292
#
# Revision: 1
# Processed by: cddbd v1.5.1PL0 Copyright (c) Steve Scherf et al.
# Submitted via: dBpowerAMP V4.0
# Normalized: r0:DSETVAR1,TDELIM( - )
#
DISCID=0c0cda13
DTITLE=Various Artist - Country Ladies
DYEAR=2001
DGENRE=Country
TTITLE0=Donna Fargo - All That's Keeping Me Alive
TTITLE1=Lynn Anderson - Rosegarden
TTITLE2=Patsy Cline - Walkin' After Midnight
TTITLE3=Donna Fargo - Wishful Thinking
TTITLE4=Emmylou Harris and Carl Jackson - I've Always Needed You
TTITLE5=Patsy Cline - Let The Teardrops Fall
TTITLE6=Anne Murray - There Goes My Everything
TTITLE7=Lynn Anderson - Gone At Last
TTITLE8=Dolly Parton - Letter To Heaven
TTITLE9=Patsy Cline - Life's Railway To Heaven
TTITLE10=Patsy Cline - I Can See An Angel
TTITLE11=Anne Murray - Both Sides Now
TTITLE12=Lynn Anderson - Blue Bayou
TTITLE13=Billie Joe Spears - Dallas
TTITLE14=Kitty Wells - Making Believe
TTITLE15=Dolly Parton - Little Blossom
TTITLE16=Kitty Wells - I Don't Claim To Be An Angel
TTITLE17=Lynn Anderson - Stand By Your Man
TTITLE18=Anne Murray - Last Thing On My Mind
EXTD=
EXTT0=
EXTT1=
EXTT2=
EXTT3=
EXTT4=
EXTT5=
EXTT6=
EXTT7=
EXTT8=
EXTT9=
EXTT10=
EXTT11=
EXTT12=
EXTT13=
EXTT14=
EXTT15=
EXTT16=
EXTT17=
EXTT18=
PLAYORDER=
